<svg height='300px' width='300px'  fill="#000000" xmlns="http://www.w3.org/2000/svg" xmlns:xlink="http://www.w3.org/1999/xlink" viewBox="0 0 100 100" version="1.1" x="0px" y="0px"><title>Artboard</title><desc>Created with Sketch.</desc><g stroke="none" stroke-width="1" fill="none" fill-rule="evenodd"><g stroke="#000000" stroke-width="1.5"><g transform="translate(5.000000, 21.000000)"><path d="M73.5578712,24.8437302 C73.5634994,24.6045331 73.5916402,24.3709642 73.5916402,24.1317672 C73.5916402,11.2911068 63.1795334,0.879 50.3388731,0.879 C41.0861684,0.879 33.1166856,6.29892371 29.3739553,14.1220742 C27.7558576,13.3088043 25.9323319,12.8388524 23.9962428,12.8388524 C18.0557138,12.8388524 13.1366968,17.1584697 12.1770946,22.8260327 C5.10249009,25.2517722 0.009,31.9464755 0.009,39.8456062 C0.009,49.7849471 8.06290532,57.8360383 17.996618,57.8472947 L73.5916402,57.8416665 C82.6670577,57.7938271 90.009,50.4293721 90.009,41.3455124 C90.009,32.2475823 82.6501732,24.8746851 73.5578712,24.8465442 L73.5578712,24.8437302 Z"></path></g></g></g></svg>